<svg xmlns="http://www.w3.org/2000/svg" >
  <g  id="plus-add-room" >
    <path
      d="M10.875 7.5H8.5V5.125C8.5 5.05625 8.44375 5 8.375 5H7.625C7.55625 5 7.5 5.05625 7.5 5.125V7.5H5.125C5.05625 7.5 5 7.55625 5 7.625V8.375C5 8.44375 5.05625 8.5 5.125 8.5H7.5V10.875C7.5 10.9437 7.55625 11 7.625 11H8.375C8.44375 11 8.5 10.9437 8.5 10.875V8.5H10.875C10.9437 8.5 11 8.44375 11 8.375V7.625C11 7.55625 10.9437 7.5 10.875 7.5Z"
      fill="black"
    />
    <path
      d="M8 1C4.13438 1 1 4.13438 1 8C1 11.8656 4.13438 15 8 15C11.8656 15 15 11.8656 15 8C15 4.13438 11.8656 1 8 1ZM8 13.8125C4.79063 13.8125 2.1875 11.2094 2.1875 8C2.1875 4.79063 4.79063 2.1875 8 2.1875C11.2094 2.1875 13.8125 4.79063 13.8125 8C13.8125 11.2094 11.2094 13.8125 8 13.8125Z"
      fill="black"
    />
  </g>

<g id='plus'>
<path d="M16 8C16 8.73733 15.936 9.33333 15.1987 9.33333H9.33333V15.1987C9.33333 15.9347 8.73733 16 8 16C7.26267 16 6.66667 15.9347 6.66667 15.1987V9.33333H0.801333C0.0653331 9.33333 0 8.73733 0 8C0 7.26267 0.0653331 6.66667 0.801333 6.66667H6.66667V0.801333C6.66667 0.0639998 7.26267 0 8 0C8.73733 0 9.33333 0.0639998 9.33333 0.801333V6.66667H15.1987C15.936 6.66667 16 7.26267 16 8Z" fill="black"/>
</g>

<g id='minus'>
<path d="M0.5 7.5C0.5 6.94772 0.947715 6.5 1.5 6.5H14.5C15.0523 6.5 15.5 6.94772 15.5 7.5V8.5C15.5 9.05228 15.0523 9.5 14.5 9.5H1.5C0.947715 9.5 0.5 9.05228 0.5 8.5V7.5Z" fill="black"/>
</g>


<g id='pointer'>
<path d="M6.5 8.04168L0.25 1.79168L1.70833 0.333344L6.5 5.12501L11.2917 0.333344L12.75 1.79168L6.5 8.04168Z" fill="white"/>
</g>



</svg>





